PathFileType	4	(x/y/z)	S09_M20_T02
DataRate	CameraRate	NumFrames	NumMarkers	Units	OrigDataRate	OrigDataStartFrame	OrigNumFrames
240	240	5	51	mm	240	345	551
Frame#	Time	Sternum			R.Acromium			L.Acromium			Top.Head			R.ASIS			L.ASIS			R.PSIS			L.PSIS			R.Great.Tro			L.Great.Tro			R.Iliac.Crest			L.Iliac.Crest			V.Sacral			R.Thigh.Upper.Post			R.Thigh.Lower.Ant			R.Thigh.Lower.Post			R.Thigh.Upper.Ant			R.Knee.Lat			R.Knee.Med			R.Shank.Upper.Post			R.Shank.Lower.Ant			R.Shank.Lower.Post			R.Shank.Upper.Ant			R.Ankle.Lat			R.Ankle.Med			R.Heel.Upper			R.Heel.Med			R.Heel.Lat			R.Toe.Lat			R.Toe.Med			R.Toe.Tip			L.Thigh.Upper.Post			L.Thigh.Lower.Ant			L.Thigh.Lower.Post			L.Thigh.Upper.Ant			L.Knee.Lat			L.Knee.Med			L.Shank.Upper.Post			L.Shank.Lower.Ant			L.Shank.Lower.Post			L.Shank.Upper.Ant			L.Ankle.Lat			L.Ankle.Med			L.Heel.Upper			L.Heel.Med			L.Heel.Lat			L.Toe.Lat			L.Toe.Med			L.Toe.Tip			Cervical.Spine			Back			
		X1	Y1	Z1	X2	Y2	Z2	X3	Y3	Z3	X4	Y4	Z4	X5	Y5	Z5	X6	Y6	Z6	X7	Y7	Z7	X8	Y8	Z8	X9	Y9	Z9	X10	Y10	Z10	X11	Y11	Z11	X12	Y12	Z12	X13	Y13	Z13	X14	Y14	Z14	X15	Y15	Z15	X16	Y16	Z16	X17	Y17	Z17	X18	Y18	Z18	X19	Y19	Z19	X20	Y20	Z20	X21	Y21	Z21	X22	Y22	Z22	X23	Y23	Z23	X24	Y24	Z24	X25	Y25	Z25	X26	Y26	Z26	X27	Y27	Z27	X28	Y28	Z28	X29	Y29	Z29	X30	Y30	Z30	X31	Y31	Z31	X32	Y32	Z32	X33	Y33	Z33	X34	Y34	Z34	X35	Y35	Z35	X36	Y36	Z36	X37	Y37	Z37	X38	Y38	Z38	X39	Y39	Z39	X40	Y40	Z40	X41	Y41	Z41	X42	Y42	Z42	X43	Y43	Z43	X44	Y44	Z44	X45	Y45	Z45	X46	Y46	Z46	X47	Y47	Z47	X48	Y48	Z48	X49	Y49	Z49	X50	Y50	Z50	X51	Y51	Z51	

345	1.4333	887.13	1130.3	354.23	757.27	1385.8	484.81	771.95	1376	174.26	831.66	1674.1	310.97	826.94	966.88	463.65	873.67	969.51	217.66	627.14	1003.6	342.39	651.19	994.31	256.66	718.04	892.19	518.94	816.04	881.64	135.99	731.91	1050.8	492.82	766.16	1059.1	162.72	617.82	965.46	292.88	622.2	665.64	473.84	653.85	544.86	437.43	584.63	584.66	439.69	682.64	625.41	470.21	598.35	485.77	420.74	603.32	480.72	299.76	450.94	365.12	414.96	482.04	280.08	400.37	412.61	300.18	399.46	513.36	345.57	416.7	347.77	123.52	371.87	381.04	124.84	285.3	276.61	118.62	317.4	280.36	84.401	289.4	270.78	88.729	353.81	419.48	42.195	413.48	473.79	39.99	310.59	520.53	43.989	360.14	869.57	620.41	181.99	988.29	575.48	180.32	926.93	551.05	202.23	933.14	642.2	155.98	1015.5	505.53	193.57	1026.1	525.53	330.05	1043.3	367.75	185.85	1145.2	325.95	191.68	1084.9	303.05	191.75	1103.1	390.73	186.55	1214.9	142.15	212.36	1240.6	161.29	301.29	1198.1	67.763	275.97	1225.6	65.508	308.42	1217.6	43.599	250.82	1336.3	152.28	167.96	1365.4	201.28	267.91	1381.1	238.82	200.83	688.91	1432.9	331.22	633.25	1166.6	313.1
346	1.4375	893.65	1129.2	353.77	763.86	1384.7	484.34	778.17	1374.9	173.82	837.48	1673.1	310.49	833.07	965.66	463.51	880.51	968.53	217.61	633.69	1002.7	341.58	657.97	993.41	255.92	723.69	891.19	518.33	823.2	880.91	135.67	738.08	1049.7	492.41	773.12	1058.1	162.32	624.53	964.6	292.02	626.96	665.28	473.35	658.03	544.24	437.33	589.04	584.46	439.2	687.17	624.68	470.06	602.27	485.44	420.59	607.54	480.12	299.58	454.07	365.87	414.81	484.48	280.55	400.37	415.23	301.22	399.32	516.32	345.82	416.66	348.94	124.96	371.99	382.34	125.96	285.48	277.78	120.73	317.53	281.22	86.537	289.46	271.66	90.76	353.88	419.76	42.406	413.49	474.11	40.042	310.69	520.72	43.87	360.21	876.89	619.64	181.84	995.66	574.89	180.74	934.31	550.38	202.29	940.52	641.51	156.07	1022.8	504.84	194.09	1033	525	330.33	1049.3	366.86	186.25	1150.7	323.9	192.6	1090.1	301.67	192.29	1109.3	389.16	187.35	1218	139.44	213.3	1243.6	158.01	302.43	1200.7	65.028	276.61	1228.1	62.521	309	1220.1	40.899	251.33	1339.3	149.41	169.09	1368.4	197.88	269.24	1384.2	235.71	202.36	695.17	1431.7	330.83	639.78	1165.4	312.8
347	1.4417	900.23	1128.1	353.29	770.46	1383.6	483.85	784.42	1373.8	173.37	843.32	1672.1	310	839.28	964.45	463.36	887.41	967.57	217.55	640.31	1001.8	340.77	664.82	992.51	255.16	729.42	890.19	517.71	830.45	880.19	135.36	744.31	1048.5	491.98	780.12	1057.2	161.92	631.32	963.73	291.15	631.83	664.91	472.86	662.32	543.63	437.23	593.57	584.25	438.72	691.81	623.96	469.91	606.3	485.11	420.46	611.87	479.52	299.41	457.32	366.65	414.67	487.01	281.05	400.39	417.93	302.3	399.18	519.39	346.08	416.65	350.18	126.45	372.14	383.7	127.14	285.69	279.02	122.93	317.68	282.15	88.773	289.52	272.6	92.88	353.95	420.06	42.632	413.5	474.44	40.1	310.8	520.91	43.757	360.27	884.2	618.86	181.67	1003	574.26	181.17	941.65	549.69	202.35	947.9	640.79	156.15	1030.1	504.09	194.61	1039.9	524.42	330.6	1055.2	365.93	186.64	1156	321.78	193.54	1095.2	300.25	192.82	1115.4	387.52	188.16	1220.9	136.7	214.26	1246.3	154.67	303.57	1203.1	62.352	277.22	1230.5	59.563	309.56	1222.4	38.243	251.83	1342.1	146.46	170.24	1371.3	194.36	270.6	1387.1	232.5	203.92	701.45	1430.5	330.43	646.37	1164.2	312.49
348	1.4458	906.89	1127.1	352.79	777.09	1382.6	483.35	790.67	1372.7	172.9	849.18	1671.1	309.52	845.57	963.25	463.2	894.36	966.62	217.49	647	1001	339.96	671.74	991.63	254.4	735.24	889.2	517.08	837.79	879.49	135.04	750.6	1047.3	491.55	787.18	1056.2	161.5	638.19	962.88	290.28	636.81	664.55	472.36	666.73	543.02	437.14	598.21	584.04	438.24	696.56	623.23	469.77	610.45	484.77	420.33	616.33	478.9	299.25	460.67	367.45	414.54	489.62	281.57	400.42	420.74	303.42	399.06	522.55	346.37	416.66	351.47	128	372.31	385.13	128.37	285.93	280.35	125.22	317.84	283.15	91.111	289.6	273.61	95.091	354.02	420.37	42.873	413.53	474.8	40.165	310.91	521.1	43.652	360.34	891.51	618.09	181.49	1010.3	573.57	181.61	948.94	548.96	202.41	955.29	640.04	156.25	1037.3	503.29	195.12	1046.8	523.78	330.87	1061	364.94	187.04	1161.2	319.61	194.49	1100.2	298.78	193.36	1121.5	385.83	188.98	1223.8	133.93	215.22	1249	151.29	304.72	1205.3	59.772	277.81	1232.6	56.671	310.09	1224.5	35.664	252.29	1344.8	143.45	171.41	1374.1	190.75	271.98	1390	229.19	205.51	707.75	1429.4	330.01	653.01	1162.9	312.18
349	1.45	913.62	1126.1	352.29	783.73	1381.5	482.82	796.95	1371.6	172.42	855.06	1670.2	309.04	851.94	962.06	463.03	901.37	965.69	217.42	653.76	1000.1	339.14	678.72	990.76	253.63	741.15	888.21	516.43	845.21	878.8	134.73	756.95	1046.2	491.11	794.29	1055.3	161.08	645.13	962.02	289.4	641.92	664.18	471.86	671.25	542.4	437.06	602.98	583.82	437.76	701.43	622.52	469.64	614.72	484.43	420.21	620.9	478.28	299.1	464.15	368.29	414.43	492.34	282.13	400.48	423.65	304.58	398.95	525.82	346.67	416.68	352.84	129.62	372.5	386.65	129.65	286.19	281.75	127.6	318.02	284.23	93.554	289.68	274.69	97.396	354.1	420.7	43.132	413.56	475.17	40.238	311.03	521.3	43.553	360.4	898.8	617.32	181.31	1017.6	572.83	182.06	956.19	548.21	202.46	962.68	639.27	156.34	1044.4	502.43	195.63	1053.6	523.08	331.13	1066.7	363.92	187.43	1166.4	317.4	195.45	1105.1	297.27	193.9	1127.4	384.09	189.81	1226.6	131.17	216.18	1251.5	147.9	305.87	1207.3	57.326	278.37	1234.6	53.878	310.59	1226.3	33.198	252.74	1347.4	140.38	172.6	1376.8	187.05	273.39	1392.8	225.8	207.12	714.07	1428.2	329.59	659.7	1161.7	311.85
